inDegrees=yes
name=ik_data_2024_11_07_18_11
DataType=double
version=3
OpenSimVersion=4.5.1
endheader
time	pelvis_tilt	pelvis_list	pelvis_rotation	pelvis_tx	pelvis_ty	pelvis_tz	hip_flexion_r	hip_adduction_r	hip_rotation_r	knee_angle_r	knee_angle_r_beta	ankle_angle_r	subtalar_angle_r	mtp_angle_r	hip_flexion_l	hip_adduction_l	hip_rotation_l	knee_angle_l	knee_angle_l_beta	ankle_angle_l	subtalar_angle_l	mtp_angle_l	lumbar_extension	lumbar_bending	lumbar_rotation	arm_flex_r	arm_add_r	arm_rot_r	elbow_flex_r	pro_sup_r	wrist_flex_r	wrist_dev_r	arm_flex_l	arm_add_l	arm_rot_l	elbow_flex_l	pro_sup_l	wrist_flex_l	wrist_dev_l
5.01664	-5.039562562216837	-1.436675182651403	-45.2350015343597	0	0.9399999999999999	0	48.05434304691502	20.60787224640043	20.31660917991456	83.77994695499346	1.462235921510833	-5.023601729969222	0	0	2.772637164153031	-4.727220049823125	-28.17082181546334	0.5049342817752748	0.008812765723171342	-5.023601729969222	0	0	0	0	0	0	-5.718100427487141	0	67.24586340062336	47.40069018710939	0	0	0	-5.718100427487141	0	67.24586340062336	47.40069018710939	0	0
5.083	-4.79140476564438	-1.250005735174935	-41.13880918301958	0	0.9399999999999999	0	47.27045952118457	16.9663149853727	18.04917629606219	81.75700167320807	1.426928865755994	-5.022947751323191	0	0	3.028603916647931	-4.202957237585173	-24.08324134932847	0.5064121887028074	0.008838560065094821	-5.022947751323191	0	0	0	0	0	0	-5.7476064534248	0	67.29412623145527	47.35995167953954	0	0	0	-5.7476064534248	0	67.29412623145527	47.35995167953954	0	0
5.08837	-4.926297729949603	-1.091456325614372	-37.96220546118485	0	0.9399999999999999	0	46.73406804143896	14.09967055159749	15.85984011383056	78.9742502607849	1.378360691344687	-5.022576658247923	0	0	3.459225767989874	-3.990355602896974	-20.90254359785061	0.5106969128223207	0.008913342608519942	-5.022576658247923	0	0	0	0	0	0	-5.764773814855634	0	67.32209229581458	47.33660630088418	0	0	0	-5.764773814855634	0	67.32209229581458	47.33660630088418	0	0
5.13367	-5.11195205823077	-0.9097106205308538	-34.32251048757713	0	0.9399999999999999	0	45.80297916833154	10.82504127332437	13.72426397280215	76.18806931771154	1.329732660331736	-5.021892277667393	0	0	3.964180899872601	-3.715637654324776	-17.26397198935874	0.5107159530047659	0.008913674922393791	-5.021892277667393	0	0	0	0	0	0	-5.796909918901565	0	67.37439330223566	47.2932206078082	0	0	0	-5.796909918901565	0	67.37439330223566	47.2932206078082	0	0
5.20061	-5.543547201870075	-1.013126171309976	-36.14504036408407	0	0.9399999999999999	0	44.29476431960774	12.07805494902555	14.47781135408176	72.61081695893458	1.267297828496345	-5.021707003955952	0	0	4.131533496031983	-4.174318910814376	-19.05458945525616	0.5073292928776121	0.008854566552528949	-5.021707003955952	0	0	0	0	0	0	-5.805896366022931	0	67.38892686225708	47.28133875530016	0	0	0	-5.805896366022931	0	67.38892686225708	47.28133875530016	0	0
5.26566	-5.492882757380647	-0.9102746853555644	-34.32632904885632	0	0.9399999999999999	0	42.81352504827681	10.18723765372391	13.2547733970582	69.32943040348263	1.210026829073033	-5.021465654415973	0	0	4.280668076219872	-3.933358467288694	-17.24678962018674	0.513745104542499	0.008966543590269084	-5.021465654415973	0	0	0	0	0	0	-5.817705639076283	0	67.40800376839205	47.26580110449559	0	0	0	-5.817705639076283	0	67.40800376839205	47.26580110449559	0	0
5.26818	-5.634364192662294	-0.9913987287897574	-35.89738529591955	0	0.9399999999999999	0	41.05723636368838	11.16359668808664	14.04863586802413	66.6496822304404	1.163256400329143	-5.021380647651708	0	0	4.243312811954779	-4.193756607675451	-18.80769818641724	0.5142993268136656	0.008976216593688822	-5.021380647651708	0	0	0	0	0	0	-5.821861297582819	0	67.41471564780645	47.26033168218262	0	0	0	-5.821861297582819	0	67.41471564780645	47.26033168218262	0	0
5.32669	-5.603950724965211	-0.8750049022266617	-33.57853032823624	0	0.9399999999999999	0	39.55982227413175	9.152454374508098	12.29688309432693	62.86466940235818	1.097195464248886	-5.021175135626638	0	0	4.43130361410469	-3.899127925811961	-16.5000553059952	0.4912806783650163	0.008574465388900807	-5.021175135626638	0	0	0	0	0	0	-5.832080510535436	0	67.43118568375048	47.24701235072628	0	0	0	-5.832080510535436	0	67.43118568375048	47.24701235072628	0	0
5.38479	-5.571030696043912	-0.8952311076428681	-34.03063762640741	0	0.9399999999999999	0	37.72602391665235	9.066490161265731	12.62553838827762	59.9909622721925	1.047039813089458	-5.021108189063237	0	0	4.380604040895686	-3.935597827496037	-16.9523680202167	0.5145947386323277	0.008981372502573781	-5.021108189063237	0	0	0	0	0	0	-5.835476210738385	0	67.43661760736627	47.24265951182995	0	0	0	-5.835476210738385	0	67.43661760736627	47.24265951182995	0	0
5.44646	-5.514101818048217	-0.8488058208678194	-33.0779469846949	0	0.9399999999999999	0	35.80695573898256	8.281887260426183	11.80147021570787	56.7401610497461	0.9903026284299115	-5.021033250235774	0	0	4.417440280679623	-3.797616848341644	-16.00322540191883	0.5142109057318389	0.008974673354682772	-5.021033250235774	0	0	0	0	0	0	-5.839254290260956	0	67.44267543774939	47.23779100818363	0	0	0	-5.839254290260956	0	67.44267543774939	47.23779100818363	0	0
5.44926	-5.494130148872406	-0.7672912958951845	-31.42324626474682	0	0.9399999999999999	0	34.15196270492297	7.022074095497579	10.42892662954226	53.47064092657847	0.9332387373204258	-5.020814026013528	0	0	4.549812214043083	-3.587389495617549	-14.3502968922982	0.5134758277636086	0.00896184382387828	-5.020814026013528	0	0	0	0	0	0	-5.850285119874354	0	67.4604297188401	47.22350589611335	0	0	0	-5.850285119874354	0	67.4604297188401	47.22350589611335	0	0
